<svg width="800" height="800" viewBox="0 0 800 800" fill="none" xmlns="http://www.w3.org/2000/svg">
<path d="M661.347 143.737C634.977 118.878 593.481 120.147 568.659 146.515C543.825 172.886 545.069 214.381 571.439 239.203C621.567 286.411 649.18 350.512 649.18 419.672C649.18 557.069 537.397 668.853 399.998 668.853C262.6 668.853 150.82 557.069 150.82 419.672C150.82 350.512 178.427 286.411 228.561 239.203C254.931 214.383 256.173 172.887 231.341 146.515C206.52 120.133 165.005 118.878 138.653 143.737C63.0375 214.933 19.6719 315.509 19.6719 419.672C19.6719 629.38 190.286 800 400 800C609.708 800 780.328 629.38 780.328 419.672C780.328 315.509 736.962 214.933 661.347 143.737Z" fill="#FF0038"/>
<path d="M400 419.672C436.216 419.672 465.574 396.183 465.574 367.213V52.4594C465.574 23.4891 436.216 0 400 0C363.785 0 334.427 23.4891 334.427 52.4594V367.214C334.427 396.183 363.785 419.672 400 419.672Z" fill="#FF0038"/>
</svg>
