<svg width="800" height="800" viewBox="0 0 800 800" fill="none" xmlns="http://www.w3.org/2000/svg">
<path d="M733.333 220.739V574.833C733.333 611.93 709.523 649.026 672.11 662.513L502.04 726.589C491.836 729.959 481.633 733.333 468.026 733.333C451.02 733.333 430.613 726.589 413.606 716.473C406.803 709.726 396.6 702.983 393.196 696.236H263.945C212.925 696.236 168.707 655.769 168.707 601.813V568.089C168.707 554.599 178.911 541.109 195.918 541.109C212.925 541.109 223.129 551.226 223.129 568.089V601.813C223.129 625.419 243.537 642.279 263.945 642.279H376.19V156.665H263.945C240.136 156.665 223.129 173.527 223.129 197.133V230.856C223.129 244.345 212.925 257.835 195.918 257.835C178.911 257.835 168.707 244.345 168.707 230.856V197.133C168.707 146.548 209.524 102.708 263.945 102.708H393.196C400 95.9632 406.803 89.2185 413.606 82.4738C440.816 65.6122 471.43 62.2398 502.04 72.3568L672.11 136.431C706.123 146.548 733.333 183.644 733.333 220.739Z" fill="#FF0038"/>
<path d="M161.905 493.896C155.102 493.896 148.3 490.526 144.898 487.153L76.871 419.706C73.4697 416.333 73.4697 412.963 70.0683 412.963C70.0683 409.59 66.667 406.216 66.667 402.846C66.667 399.473 66.667 396.1 70.0683 392.73C70.0683 389.356 73.4697 385.983 76.871 385.983L144.898 318.537C155.102 308.42 172.109 308.42 182.313 318.537C192.517 328.654 192.517 345.516 182.313 355.633L158.504 379.24H297.96C311.565 379.24 325.17 389.356 325.17 406.216C325.17 423.08 311.565 426.453 297.96 426.453H155.102L178.912 450.056C189.116 460.173 189.116 477.036 178.912 487.153C175.511 490.526 168.708 493.896 161.905 493.896Z" fill="#FF0038"/>
</svg>
